<?xml version="1.0" standalone="no"?>
<!DOCTYPE svg PUBLIC "-//W3C//DTD SVG 1.1//EN" "http://www.w3.org/Graphics/SVG/1.1/DTD/svg11.dtd" >
<svg xmlns="http://www.w3.org/2000/svg">
<metadata></metadata>
<defs>
<font id="FunctionCapsBookRegular" horiz-adv-x="1161" >
<font-face units-per-em="2048" ascent="1542" descent="-506" />
<missing-glyph horiz-adv-x="512" />
<glyph unicode="&#xfb01;" horiz-adv-x="1234" d="M178 0v907h467v-133h-321v-213h313v-133h-313v-428h-146zM913 0v907h146v-907h-146z" />
<glyph unicode="&#xfb02;" horiz-adv-x="1347" d="M178 0v907h467v-133h-321v-213h313v-133h-313v-428h-146zM913 0v907h146v-774h262v-133h-408z" />
<glyph horiz-adv-x="0" />
<glyph horiz-adv-x="2048" />
<glyph unicode=" "  horiz-adv-x="512" />
<glyph unicode="&#x09;" horiz-adv-x="512" />
<glyph unicode="&#xa0;" horiz-adv-x="512" />
<glyph unicode="!" horiz-adv-x="571" d="M184 82q0 41 30.5 70.5t72.5 29.5q41 0 70.5 -29.5t29.5 -70.5q0 -43 -29.5 -72.5t-72.5 -29.5q-41 0 -71 30.5t-30 71.5zM211 281v626h149v-626h-149z" />
<glyph unicode="&#x22;" horiz-adv-x="673" d="M109 1366h165l-28 -549h-111zM401 1366h164l-26 -549h-111z" />
<glyph unicode="#" horiz-adv-x="1228" d="M100 434v123h234l35 285h-217v123h233l49 411l129 -16l-49 -395h289l51 411l127 -16l-49 -395h213v-123h-225l-37 -285h211v-123h-226l-55 -440l-127 18l51 422h-288l-56 -440l-127 18l51 422h-217zM465 557h287l34 285h-286z" />
<glyph unicode="$" d="M158 332l147 41q17 -106 83 -172.5t161 -73.5v551q-175 72 -248.5 153t-73.5 201q0 135 87 229t235 117v185h121v-187q89 -10 165 -66t121 -141l-118 -77q-38 64 -76.5 96.5t-91.5 44.5v-449q119 -53 182 -96q154 -102 154 -289q0 -152 -91 -262.5t-245 -144.5v-199h-121 v191q-145 5 -254 102t-137 246zM381 1030q0 -60 40 -106t128 -86v397q-78 -20 -123 -75t-45 -130zM670 137q87 34 134.5 100.5t47.5 153.5q0 77 -42 131t-140 101v-486z" />
<glyph unicode="%" horiz-adv-x="1464" d="M68 1087q0 120 90 206.5t213 86.5q127 0 216 -87t89 -212t-89 -211t-218 -86q-126 0 -213.5 88.5t-87.5 214.5zM188 1085q0 -78 54 -132t131 -54q75 0 128.5 54t53.5 130q0 77 -54 131t-130 54q-74 0 -128.5 -54t-54.5 -129zM295 20l795 1373l77 -45l-794 -1375zM788 289 q0 120 90.5 206.5t213.5 86.5q127 0 216 -87t89 -212t-89 -211t-218 -86q-126 0 -214 88.5t-88 214.5zM909 287q0 -77 54.5 -132t130.5 -55q75 0 128.5 54.5t53.5 130.5q0 77 -54 130.5t-130 53.5q-74 0 -128.5 -53.5t-54.5 -128.5z" />
<glyph unicode="&#x26;" horiz-adv-x="944" d="M82 236q0 63 33.5 124t93.5 105q82 57 110 74q-42 55 -58.5 94.5t-16.5 85.5q0 90 61.5 151.5t151.5 61.5q88 0 148.5 -59.5t60.5 -147.5q0 -62 -29.5 -106.5t-112.5 -108.5l146 -188q42 43 92 110l106 -90q-65 -88 -110 -131l166 -211h-185l-84 109q-93 -76 -155 -105 t-133 -29q-118 0 -201.5 76.5t-83.5 184.5zM225 240q0 -54 42.5 -94t99.5 -40q41 0 83 23.5t117 89.5l-161 209q-107 -67 -144 -105t-37 -83zM385 725q0 -23 10 -43t43 -64q54 40 70 60t16 49q0 31 -19 51.5t-48 20.5t-50.5 -22.5t-21.5 -51.5z" />
<glyph unicode="'" horiz-adv-x="382" d="M109 1366h165l-28 -549h-111z" />
<glyph unicode="(" horiz-adv-x="602" d="M170 567q0 262 46 514.5t124 419.5l131 -59q-154 -394 -154 -875q0 -482 154 -876l-131 -60q-78 167 -124 420.5t-46 515.5z" />
<glyph unicode=")" horiz-adv-x="602" d="M129 -309q154 394 154 876q0 481 -154 875l129 59q79 -167 125.5 -419t46.5 -515q0 -264 -46 -515.5t-126 -420.5z" />
<glyph unicode="*" d="M242 1198l43 129l237 -88l-10 254h137l-10 -254l238 88l43 -129l-246 -70l157 -198l-110 -82l-141 213l-140 -213l-110 82l157 198z" />
<glyph unicode="+" d="M98 635v125h420v411h125v-411h420v-125h-420v-414h-125v414h-420z" />
<glyph unicode="," horiz-adv-x="464" d="M49 -272l170 473l133 -49l-205 -463z" />
<glyph unicode="-" horiz-adv-x="370" d="M0 371v131h371v-131h-371z" />
<glyph unicode="." horiz-adv-x="464" d="M131 82q0 41 30 70.5t70 29.5q43 0 73 -29.5t30 -70.5q0 -42 -30 -72t-71 -30q-43 0 -72.5 29.5t-29.5 72.5z" />
<glyph unicode="/" horiz-adv-x="993" d="M-29 -313l893 1814l119 -53l-893 -1817z" />
<glyph unicode="0" d="M92 522q0 148 65 272t177.5 195.5t247.5 71.5q207 0 347 -155.5t140 -385.5q0 -113 -38 -214t-102.5 -173.5t-155 -115t-191.5 -42.5q-209 0 -349.5 157t-140.5 390zM242 520q0 -177 96 -294t242 -117q143 0 241.5 118.5t98.5 290.5q0 174 -98 292t-242 118 q-142 0 -240 -118t-98 -290z" />
<glyph unicode="1" horiz-adv-x="751" d="M111 897l79 141h299v-1038h-153v897h-225z" />
<glyph unicode="2" d="M102 0l525 442q99 84 139.5 144.5t40.5 124.5q0 90 -72 153.5t-174 63.5q-71 0 -132 -33t-95 -90q-32 -52 -43 -139h-152q7 72 22 118t44 90q57 88 150.5 137.5t203.5 49.5q164 0 280.5 -105.5t116.5 -253.5q0 -154 -157 -290l-324 -279h508v-133h-881z" />
<glyph unicode="3" d="M133 27h148q8 -54 17.5 -83t29.5 -55q34 -47 93.5 -76.5t121.5 -29.5q113 0 190.5 81t77.5 199q0 78 -36 140.5t-99 91.5q-59 25 -156 27v133q64 2 97.5 8t64.5 24q51 28 80 82t29 119q0 104 -66.5 172t-169.5 68q-58 0 -108 -24.5t-78 -65.5q-28 -46 -43 -138h-150 q18 130 64 201q44 75 127.5 117.5t187.5 42.5q167 0 276 -104.5t109 -264.5q0 -100 -44.5 -178t-129.5 -125q92 -43 143.5 -129.5t51.5 -200.5q0 -177 -120.5 -293t-303.5 -116q-114 0 -209 51.5t-146 140.5q-41 70 -49 185z" />
<glyph unicode="4" horiz-adv-x="1120" d="M41 0l809 1114v-981h168v-133h-168v-328h-145v328h-664zM307 133h398v545z" />
<glyph unicode="5" d="M68 -106l120 86q62 -101 137 -149t173 -48q143 0 241.5 102t98.5 250t-97.5 248t-240.5 100q-66 0 -124 -20.5t-140 -71.5l198 647h543v-133h-436l-97 -301q47 8 82 8q199 0 330 -134.5t131 -338.5q0 -211 -142.5 -350t-359.5 -139q-266 0 -417 244z" />
<glyph unicode="6" d="M109 438q0 160 112 316l465 647l115 -86l-316 -438q66 20 127 20q182 0 309.5 -132t127.5 -321q0 -127 -63 -235t-171 -171t-235 -63t-235.5 62.5t-172 169t-63.5 231.5zM258 440q0 -137 94.5 -234t227.5 -97q129 0 223 97t94 230q0 141 -92.5 238.5t-226.5 97.5 q-132 0 -226 -97.5t-94 -234.5z" />
<glyph unicode="7" horiz-adv-x="1091" d="M129 -285l723 1190h-700v133h935l-845 -1398z" />
<glyph unicode="8" d="M174 377q0 229 203 334q-80 47 -124 126.5t-44 174.5q0 161 110 270t273 109t273 -109t110 -270q0 -92 -47 -174.5t-125 -126.5q94 -46 146 -133t52 -197q0 -173 -117 -289.5t-292 -116.5q-179 0 -298.5 115t-119.5 287zM324 383q0 -114 77.5 -194t186.5 -80t186.5 80 t77.5 192q0 109 -77.5 185.5t-186.5 76.5q-108 0 -186 -77t-78 -183zM352 1014q0 -101 70 -171.5t170 -70.5q98 0 167.5 70t69.5 170q0 101 -70.5 173t-168.5 72q-97 0 -167.5 -71.5t-70.5 -171.5z" />
<glyph unicode="9" d="M111 594q0 192 138 329.5t331 137.5q127 0 236 -62t173 -168.5t64 -230.5q0 -160 -113 -315l-467 -645l-113 84l314 438q-72 -19 -125 -19q-183 0 -310.5 131.5t-127.5 319.5zM260 602q0 -139 94 -236.5t228 -97.5q133 0 227 96.5t94 233.5t-94 233.5t-227 96.5 q-132 0 -227 -96t-95 -230z" />
<glyph unicode=":" horiz-adv-x="464" d="M131 82q0 41 30 70.5t70 29.5q43 0 73 -29.5t30 -70.5q0 -42 -30 -72t-71 -30q-43 0 -72.5 29.5t-29.5 72.5zM131 770q0 41 30 70.5t70 29.5q43 0 73 -29.5t30 -70.5q0 -42 -30 -72t-71 -30q-43 0 -72.5 29.5t-29.5 72.5z" />
<glyph unicode=";" horiz-adv-x="464" d="M49 -272l170 473l133 -49l-205 -463zM164 770q0 41 30.5 70.5t71.5 29.5t71 -29.5t30 -70.5q0 -43 -30 -72.5t-73 -29.5q-41 0 -70.5 30.5t-29.5 71.5z" />
<glyph unicode="&#x3c;" horiz-adv-x="1024" d="M68 623v133l886 418v-154l-723 -330l723 -332v-151z" />
<glyph unicode="=" d="M98 510v119h965v-119h-965zM98 764v119h965v-119h-965z" />
<glyph unicode="&#x3e;" horiz-adv-x="1024" d="M70 207v151l723 332l-723 330v154l886 -418v-133z" />
<glyph unicode="?" horiz-adv-x="684" d="M109 723q0 87 67.5 148t163.5 61q101 0 167 -64t66 -161q0 -78 -39.5 -123.5t-134.5 -77.5q-81 -26 -105 -44t-24 -52q0 -31 19.5 -51.5t48.5 -20.5q64 0 70 76h143q-9 -88 -66.5 -138.5t-146.5 -50.5q-87 0 -148 55.5t-61 133.5q0 49 26 90.5t72 64.5q45 22 133 52 q38 13 54 34t16 56q0 43 -24.5 68.5t-65.5 25.5q-40 0 -65 -25.5t-25 -66.5q0 -15 6 -39h-141q-6 34 -6 49zM240 82q0 41 30.5 70.5t71.5 29.5t70.5 -29.5t29.5 -70.5q0 -43 -29.5 -72.5t-72.5 -29.5q-41 0 -70.5 30.5t-29.5 71.5z" />
<glyph unicode="@" horiz-adv-x="1474" d="M51 684q0 196 94 358t258 255.5t361 93.5q136 0 256.5 -47t206.5 -128.5t136 -195.5t50 -242q0 -130 -45 -243.5t-121.5 -180.5t-163.5 -67q-106 0 -147 121q-63 -68 -119.5 -95.5t-132.5 -27.5q-148 0 -246 105t-98 265q0 172 110 287t273 115q78 0 135 -27.5t107 -87.5 l10 98h135l-55 -465q-8 -70 -8 -94q0 -65 55 -65q72 0 130 108.5t58 243.5q0 220 -148 360t-380 140q-160 0 -292.5 -77t-209 -211.5t-76.5 -295.5q0 -160 75.5 -296t207.5 -212q131 -76 324 -76q114 0 213.5 24.5t234.5 88.5l43 -119q-128 -64 -241.5 -91.5t-247.5 -27.5 q-230 0 -398 97q-160 92 -252 256t-92 356zM496 651q0 -102 55 -167.5t141 -65.5q97 0 170.5 87t73.5 204q0 95 -56.5 155t-144.5 60q-101 0 -170 -78.5t-69 -194.5z" />
<glyph unicode="A" horiz-adv-x="1269" d="M14 0l629 1432l614 -1432h-167l-162 387h-584l-164 -387h-166zM408 528h460l-227 547z" />
<glyph unicode="B" horiz-adv-x="1085" d="M178 0v1366h248q204 0 309 -86q60 -47 93.5 -123.5t33.5 -161.5q0 -88 -32 -150.5t-103 -113.5q121 -35 189.5 -126.5t68.5 -219.5q0 -181 -137 -293q-63 -51 -137.5 -71.5t-192.5 -20.5h-340zM332 141h174q93 0 144.5 13t94.5 47q89 73 89 188q0 63 -31.5 118.5 t-83.5 84.5q-79 43 -234 43h-153v-494zM332 764h114q76 0 118 11.5t75 41.5q74 65 74 176q0 115 -72 181q-59 51 -190 51h-119v-461z" />
<glyph unicode="C" horiz-adv-x="1323" d="M102 678q0 144 57 275.5t153 227t228 152t277 56.5q113 0 207 -32t197 -104v-188q-100 94 -199 137t-215 43q-148 0 -275 -77t-201.5 -208t-74.5 -284q0 -150 74.5 -278.5t202 -203.5t276.5 -75q114 0 214 43t198 135v-188q-197 -134 -412 -134q-142 0 -272.5 56.5 t-225.5 151t-152 224.5t-57 271z" />
<glyph unicode="D" horiz-adv-x="1296" d="M178 0v1366h281q166 0 285 -37.5t217 -120.5q114 -95 174.5 -230.5t60.5 -293.5q0 -161 -61.5 -295t-178.5 -231q-101 -85 -217 -121.5t-282 -36.5h-279zM332 141h133q243 0 391 125q89 75 137.5 183t48.5 233q0 126 -48 235t-136 183q-148 125 -393 125h-133v-1084z" />
<glyph unicode="E" horiz-adv-x="987" d="M178 0v1366h707v-141h-553v-408h538v-141h-538v-535h553v-141h-707z" />
<glyph unicode="F" horiz-adv-x="886" d="M178 0v1366h621v-141h-467v-408h452v-141h-452v-676h-154z" />
<glyph unicode="G" horiz-adv-x="1552" d="M102 680q0 115 36 223.5t102 195.5t154 152.5t196.5 101.5t224.5 36q236 0 418 -140q72 -53 158 -157l-113 -103q-101 134 -211.5 195t-249.5 61q-153 0 -282 -76t-204 -206.5t-75 -284.5q0 -111 44.5 -214.5t118.5 -179t175.5 -120.5t210.5 -45q128 0 245.5 64.5 t180.5 168.5q46 73 55 193h-405v141h569v-35q0 -115 -17 -196t-55 -150q-83 -151 -239 -240.5t-336 -89.5q-142 0 -271.5 56t-223.5 151t-150 225t-56 273z" />
<glyph unicode="H" horiz-adv-x="1357" d="M178 0v1366h154v-557h696v557h154v-1366h-154v668h-696v-668h-154z" />
<glyph unicode="I" horiz-adv-x="507" d="M178 0v1366h154v-1366h-154z" />
<glyph unicode="J" horiz-adv-x="628" d="M-96 -41l84 119q51 -45 83.5 -60.5t73.5 -15.5q79 0 115.5 62.5t36.5 197.5v1104h154v-1104q0 -126 -21.5 -197t-75.5 -122q-84 -84 -204 -84q-122 0 -246 100z" />
<glyph unicode="K" horiz-adv-x="1165" d="M178 0v1366h154v-586l581 586h205l-641 -637l662 -729h-209l-559 627l-39 -39v-588h-154z" />
<glyph unicode="L" horiz-adv-x="733" d="M178 0v1366h154v-1225h375v-141h-529z" />
<glyph unicode="M" horiz-adv-x="1767" d="M129 0l225 1442l525 -1153l536 1155l211 -1444h-156l-127 950l-464 -1007l-459 1007l-135 -950h-156z" />
<glyph unicode="N" horiz-adv-x="1570" d="M178 0v1423l1063 -1116v1059h154v-1427l-1063 1114v-1053h-154z" />
<glyph unicode="O" horiz-adv-x="1626" d="M102 690q0 139 57.5 268t154 223.5t228 151t273.5 56.5q190 0 353.5 -95.5t259.5 -258.5t96 -353q0 -144 -57 -275t-153 -225.5t-228.5 -150.5t-278.5 -56t-286.5 63.5t-241.5 176.5q-177 199 -177 475zM256 690q0 -251 174 -416q78 -73 178 -114t201 -41q153 0 282 75 t204 204.5t75 283.5q0 153 -74 282.5t-202.5 205t-280.5 75.5q-150 0 -278.5 -75t-203.5 -203t-75 -277z" />
<glyph unicode="P" horiz-adv-x="935" d="M178 0v1366h248q127 0 205.5 -22t138.5 -74q60 -51 93.5 -127t33.5 -162q0 -79 -30 -153.5t-83 -125.5q-110 -104 -319 -104h-133v-598h-154zM332 737h123q139 0 216 64.5t77 181.5q0 114 -76 180q-74 62 -228 62h-112v-488z" />
<glyph unicode="Q" horiz-adv-x="1626" d="M102 678q0 144 56.5 275.5t152 227t227 152t275.5 56.5q145 0 276.5 -56.5t226.5 -152.5t151.5 -228t56.5 -278q0 -138 -45.5 -249.5t-151.5 -229.5l205 -209h-195l-114 123q-189 -134 -414 -134q-191 0 -354 94.5t-258 256.5t-95 352zM256 678q0 -152 73.5 -280.5 t200.5 -203.5t277 -75q175 0 309 98l-330 332h199l236 -246q80 90 114.5 176.5t34.5 198.5q0 156 -74 286.5t-202 205.5t-281 75q-154 0 -282 -75t-201.5 -205.5t-73.5 -286.5z" />
<glyph unicode="R" horiz-adv-x="1028" d="M178 0v1366h221q117 0 193.5 -17t134.5 -57q71 -47 111.5 -129.5t40.5 -179.5q0 -156 -94 -258t-250 -115l434 -610h-187l-411 598h-39v-598h-154zM332 733h96q145 0 223 65t78 185q0 63 -26.5 115.5t-73.5 81.5q-71 45 -207 45h-90v-492z" />
<glyph unicode="S" horiz-adv-x="1058" d="M102 328l148 41q57 -250 278 -250q114 0 194.5 78t80.5 190q0 125 -113 195q-37 24 -64 37t-177 81q-148 66 -212.5 144.5t-64.5 191.5q0 151 109.5 252t273.5 101q228 0 352 -213l-121 -78q-52 83 -103.5 115t-131.5 32q-96 0 -160.5 -60.5t-64.5 -150.5q0 -88 86 -147 q37 -25 66 -39t169 -76q164 -72 236.5 -160t72.5 -217q0 -177 -125.5 -298.5t-308.5 -121.5q-161 0 -271.5 93t-148.5 260z" />
<glyph unicode="T" horiz-adv-x="870" d="M27 1225v141h815v-141h-332v-1225h-154v1225h-329z" />
<glyph unicode="U" horiz-adv-x="1329" d="M178 487v879h154v-838q0 -107 9.5 -162.5t35.5 -99.5q40 -65 120.5 -106t166.5 -41q87 0 167.5 41t120.5 106q26 44 35.5 99.5t9.5 162.5v838h154v-879q0 -111 -20.5 -186t-69.5 -137q-68 -88 -173 -138.5t-222 -50.5t-224.5 51t-173.5 138q-49 63 -69.5 136.5 t-20.5 186.5z" />
<glyph unicode="V" horiz-adv-x="1134" d="M14 1366h168l387 -1040l387 1040h166l-555 -1446z" />
<glyph unicode="W" horiz-adv-x="1955" d="M14 1366h166l365 -1024l428 1094l403 -1094l402 1024h166l-572 -1436l-403 1092l-430 -1092z" />
<glyph unicode="X" horiz-adv-x="1028" d="M27 0l403 707l-369 659h175l282 -514l289 514h174l-377 -659l395 -707h-170l-313 561l-317 -561h-172z" />
<glyph unicode="Y" horiz-adv-x="1081" d="M14 1366h176l349 -610l352 610h178l-455 -778v-588h-153v588z" />
<glyph unicode="Z" horiz-adv-x="1093" d="M47 0l746 1225h-650v141h901l-743 -1225h725v-141h-979z" />
<glyph unicode="[" horiz-adv-x="595" d="M164 -360v1853h344v-137h-195v-1579h195v-137h-344z" />
<glyph unicode="\" horiz-adv-x="993" d="M10 1448l119 53l893 -1814l-119 -56z" />
<glyph unicode="]" horiz-adv-x="595" d="M88 -223h195v1579h-195v137h344v-1853h-344v137z" />
<glyph unicode="^" horiz-adv-x="1024" d="M49 745l361 625h202l361 -625h-166l-297 502l-295 -502h-166z" />
<glyph unicode="_" horiz-adv-x="1024" d="M0 -131h1024v-141h-1024v141z" />
<glyph unicode="`" horiz-adv-x="1024" d="M233 1317l152 67l215 -294l-90 -52z" />
<glyph unicode="a" horiz-adv-x="911" d="M14 0l449 987l436 -987h-160l-106 242h-352l-107 -242h-160zM332 375h252l-125 295z" />
<glyph unicode="b" horiz-adv-x="890" d="M178 0v907h221q143 0 219 -59q42 -34 67.5 -87.5t25.5 -109.5q0 -119 -115 -159q88 -19 140 -81t52 -147q0 -120 -100 -201q-45 -34 -97.5 -48.5t-133.5 -14.5h-279zM324 133h125q58 0 88 7t57 26q49 40 49 102q0 66 -50.5 97.5t-156.5 31.5h-112v-264zM324 528h88 q81 0 118 29t37 92q0 65 -37 95t-116 30h-90v-246z" />
<glyph unicode="c" horiz-adv-x="970" d="M88 451q0 198 144 339.5t346 141.5q77 0 145.5 -25.5t144.5 -81.5v-190q-83 89 -151.5 126.5t-147.5 37.5q-136 0 -234.5 -102.5t-98.5 -245.5q0 -140 98.5 -241t236.5 -101q77 0 144.5 36.5t152.5 124.5v-190q-145 -105 -297 -105q-130 0 -241.5 64.5t-176.5 174 t-65 237.5z" />
<glyph unicode="d" horiz-adv-x="983" d="M178 0v907h213q112 0 193 -25t149 -81q162 -134 162 -346q0 -217 -166 -351q-69 -55 -148 -79.5t-190 -24.5h-213zM324 133h71q149 0 240 74q113 93 113 246q0 147 -95.5 234t-257.5 87h-71v-641z" />
<glyph unicode="e" horiz-adv-x="800" d="M178 0v907h522v-133h-376v-213h366v-133h-366v-295h376v-133h-522z" />
<glyph unicode="f" horiz-adv-x="733" d="M178 0v907h467v-133h-321v-213h313v-133h-313v-428h-146z" />
<glyph unicode="g" horiz-adv-x="1107" d="M88 451q0 199 142 340t343 141q86 0 169 -30.5t141 -84.5q51 -48 102 -110l-108 -99q-75 106 -142.5 148.5t-159.5 42.5q-141 0 -240 -101.5t-99 -246.5q0 -139 98 -240.5t233 -101.5q60 0 119 25t105 69q25 25 38 53t27 84h-252v133h408q0 -115 -13 -176 q-29 -136 -153.5 -229t-278.5 -93q-130 0 -240.5 64.5t-174.5 174t-64 237.5z" />
<glyph unicode="h" horiz-adv-x="1062" d="M178 0v907h146v-350h415v350h146v-907h-146v424h-415v-424h-146z" />
<glyph unicode="i" horiz-adv-x="501" d="M178 0v907h146v-907h-146z" />
<glyph unicode="j" horiz-adv-x="497" d="M-96 -4l84 115q63 -74 110 -74q40 0 58 36t18 117v717h145v-717q0 -87 -15.5 -137.5t-53.5 -87.5q-61 -61 -150 -61q-51 0 -94 20.5t-102 71.5z" />
<glyph unicode="k" horiz-adv-x="917" d="M178 0v907h146v-358l356 358h201l-418 -415l426 -492h-199l-340 401l-26 -24v-377h-146z" />
<glyph unicode="l" horiz-adv-x="614" d="M178 0v907h146v-774h264v-133h-410z" />
<glyph unicode="m" horiz-adv-x="1265" d="M129 0l160 993l340 -747l346 747l149 -993h-143l-76 530l-278 -604l-275 604l-78 -530h-145z" />
<glyph unicode="n" horiz-adv-x="1196" d="M178 0v983l699 -719l-3 643h146v-983l-698 717l2 -641h-146z" />
<glyph unicode="o" horiz-adv-x="1146" d="M88 459q0 126 66 235t178 173.5t241 64.5q131 0 243 -64.5t177.5 -175t65.5 -239.5q0 -130 -65.5 -240t-178.5 -174t-246 -64q-131 0 -241.5 64.5t-175 176t-64.5 243.5zM236 459q0 -146 97.5 -248t237.5 -102q141 0 240.5 100.5t99.5 243.5q0 144 -99 245t-239 101 q-138 0 -237.5 -100.5t-99.5 -239.5z" />
<glyph unicode="p" horiz-adv-x="774" d="M178 0v907h221q87 0 143.5 -15.5t98.5 -51.5q43 -35 67.5 -88t24.5 -111q0 -123 -84 -194.5t-227 -71.5h-98v-375h-146zM324 506h94q83 0 126.5 34.5t43.5 100.5q0 133 -178 133h-86v-268z" />
<glyph unicode="q" horiz-adv-x="1146" d="M88 451q0 130 65.5 241t177.5 175.5t244 64.5q198 0 341 -141.5t143 -337.5q0 -178 -123 -316l133 -137h-176l-55 55q-124 -80 -265 -80q-132 0 -243.5 64t-176.5 173.5t-65 238.5zM236 453q0 -142 98.5 -243t238.5 -101q79 0 168 45l-245 249h178l164 -165q73 98 73 215 q0 145 -98.5 245.5t-239.5 100.5t-239 -100.5t-98 -245.5z" />
<glyph unicode="r" horiz-adv-x="862" d="M178 0v907h203q153 0 229 -51q52 -34 81.5 -91.5t29.5 -125.5q0 -94 -52.5 -160t-144.5 -88l277 -391h-178l-258 377h-41v-377h-146zM324 504h75q176 0 176 137q0 133 -178 133h-73v-270z" />
<glyph unicode="s" horiz-adv-x="823" d="M102 250l142 39q15 -93 56.5 -136.5t115.5 -43.5q66 0 111.5 45t45.5 110q0 67 -63 105q-49 27 -158 73q-105 44 -152.5 100t-47.5 136q0 107 80 180.5t198 73.5q89 0 153 -42t115 -134l-116 -78l-7 12q-33 66 -63.5 87.5t-83.5 21.5q-55 0 -92 -35t-37 -88q0 -45 45 -74 q37 -21 154 -70q119 -50 171 -110.5t52 -149.5q0 -125 -90.5 -211t-220.5 -86q-122 0 -200.5 70t-107.5 205z" />
<glyph unicode="t" horiz-adv-x="645" d="M27 774v133h589v-133h-221v-774h-147v774h-221z" />
<glyph unicode="u" horiz-adv-x="1044" d="M178 332v575h146v-551q0 -67 5.5 -101t20.5 -60q23 -37 72.5 -61.5t101.5 -24.5t100.5 24.5t71.5 61.5q27 47 27 161v551h145v-575q0 -143 -63 -226q-47 -61 -122 -96t-159 -35q-85 0 -160 35t-122 96q-64 84 -64 226z" />
<glyph unicode="v" horiz-adv-x="823" d="M14 907h160l240 -614l239 614h158l-399 -1003z" />
<glyph unicode="w" horiz-adv-x="1300" d="M12 907h154l211 -598l268 684l252 -686l233 600h156l-393 -966l-252 684l-268 -684z" />
<glyph unicode="x" horiz-adv-x="780" d="M27 0l282 469l-260 438h166l178 -305l180 305h168l-266 -438l277 -469h-164l-197 336l-198 -336h-166z" />
<glyph unicode="y" horiz-adv-x="804" d="M14 907h170l217 -364l222 364h170l-318 -520v-387h-147v387z" />
<glyph unicode="z" horiz-adv-x="839" d="M47 0l500 774h-420v133h666l-500 -774h467v-133h-713z" />
<glyph unicode="{" horiz-adv-x="595" d="M104 510v121q63 17 90 59.5t27 122.5v399q0 150 60.5 216.5t197.5 66.5q26 0 53 -2v-127h-18q-88 0 -115.5 -34.5t-27.5 -143.5v-383q0 -100 -26.5 -151t-98.5 -89q69 -38 97 -91.5t28 -149.5v-371q0 -63 5 -96.5t24 -55t48 -27t84 -5.5v-127q-18 -2 -38 -2h-17 q-138 0 -197 70t-59 233v376q0 88 -26.5 131t-90.5 60z" />
<glyph unicode="|" horiz-adv-x="1024" d="M436 -342v1708h154v-1708h-154z" />
<glyph unicode="}" horiz-adv-x="595" d="M63 -231h19q88 0 115.5 34.5t27.5 143.5v383q0 100 26.5 150t98.5 87q-69 38 -97 92t-28 150v371q0 121 -28.5 153.5t-133.5 30.5v129q89 0 123.5 -4.5t71.5 -20.5q117 -54 117 -276v-377q0 -88 26 -130.5t91 -61.5v-121q-63 -15 -90 -57.5t-27 -122.5v-402 q0 -149 -60.5 -214.5t-197.5 -65.5h-54v129z" />
<glyph unicode="~" horiz-adv-x="1366" d="M190 1251q64 130 127 183t154 53q77 0 229 -70q92 -42 127.5 -53.5t71.5 -11.5q57 0 97.5 30.5t86.5 108.5l93 -53q-60 -121 -130.5 -176.5t-164.5 -55.5q-42 0 -96 18.5t-191 80.5q-76 36 -133 36q-54 0 -96.5 -35t-85.5 -114z" />
<glyph unicode="&#xa1;" horiz-adv-x="571" d="M184 827q0 43 30 73t73 30q41 0 70.5 -30.5t29.5 -72.5q0 -41 -30.5 -70.5t-71.5 -29.5t-71 29.5t-30 70.5zM211 0v629h149v-629h-149z" />
<glyph unicode="&#xa2;" d="M201 694q0 170 108.5 296.5t272.5 148.5v192h118v-190q116 -9 218 -78v-193q-55 64 -106 96.5t-112 41.5v-623q117 18 224 145v-192q-57 -38 -117.5 -61t-106.5 -25v-203h-118v205q-164 22 -272.5 146.5t-108.5 293.5zM350 696q0 -115 64.5 -201t167.5 -108v617 q-101 -20 -166.5 -107t-65.5 -201z" />
<glyph unicode="&#xa3;" d="M109 53q51 82 119.5 127.5t144.5 46.5q57 92 57 172q0 37 -12 84h-230v117h181l-60 117q-55 107 -72.5 163t-17.5 124q0 160 118 270t288 110q173 0 280.5 -109.5t114.5 -295.5l-150 -41q-7 97 -22 147q-23 70 -83 111t-140 41q-107 0 -179.5 -70t-72.5 -174 q0 -53 22.5 -112t87.5 -183l52 -98h258v-117h-218q13 -48 13 -80q0 -85 -60 -196q62 -19 118 -38.5t77 -27t40.5 -12t37.5 -4.5q48 0 85 30.5t79 106.5l122 -74q-56 -109 -123.5 -160t-156.5 -51q-74 0 -225 54q-86 32 -123 41.5t-70 9.5q-50 0 -87 -24.5t-77 -84.5z" />
<glyph unicode="&#xa4;" horiz-adv-x="1366" d="M109 1221l84 86l196 -195q94 63 154 85t141 22q82 0 142 -21.5t151 -83.5l194 193l84 -86l-192 -193q58 -87 80 -150t22 -141q0 -80 -21 -139.5t-81 -148.5l194 -197l-81 -84l-197 194q-83 -58 -148 -81t-145 -23q-77 0 -141 22t-154 80l-194 -192l-84 84l194 192 q-59 84 -82.5 149t-23.5 144q0 78 22.5 143t79.5 146zM340 737q0 -141 101.5 -242.5t242.5 -101.5t242.5 101.5t101.5 242.5t-100.5 243.5t-239.5 102.5q-146 0 -247 -100.5t-101 -245.5z" />
<glyph unicode="&#xa5;" d="M53 1366h176l349 -610l352 610h178l-272 -465h223v-117h-291l-102 -178h393v-117h-406v-489h-153v489h-398v117h385l-100 178h-285v117h217z" />
<glyph unicode="&#xa6;" horiz-adv-x="1024" d="M436 313h154v-655h-154v655zM436 682v684h154v-684h-154z" />
<glyph unicode="&#xa7;" d="M207 569q0 232 205 322q-91 54 -131.5 118.5t-40.5 159.5q0 145 103 242.5t255 97.5q93 0 173 -42t120 -111q48 -81 57 -234h-145q-3 107 -33 158q-25 42 -70 66t-100 24q-95 0 -154 -59t-59 -154q0 -89 70 -143q30 -23 56 -34.5t124 -45.5q151 -55 209 -105 q51 -43 79.5 -111t28.5 -147q0 -107 -47.5 -181.5t-156.5 -139.5q67 -41 94 -70q35 -35 55.5 -93t20.5 -122q0 -154 -99 -248t-260 -94q-100 0 -180 42t-121 116q-43 71 -49 223h147q5 -65 13 -98.5t26 -59.5q54 -82 168 -82q95 0 150 55t55 150q0 112 -88 170 q-31 20 -53.5 30.5t-128.5 51.5q-78 30 -119.5 52.5t-71.5 50.5q-102 91 -102 245zM358 575q0 -94 65 -159.5t157 -65.5t156.5 65.5t64.5 157.5q0 93 -64.5 158.5t-156.5 65.5q-91 0 -156.5 -65.5t-65.5 -156.5z" />
<glyph unicode="&#xa8;" horiz-adv-x="1024" d="M231 1149q0 41 31 71.5t72 30.5q43 0 73.5 -30.5t30.5 -71.5q0 -43 -30.5 -74t-71.5 -31q-43 0 -74 31t-31 74zM588 1149q0 40 30.5 70t71.5 30q42 0 72.5 -30t30.5 -72q0 -41 -31 -72t-72 -31q-42 0 -72 31t-30 74z" />
<glyph unicode="&#xa9;" horiz-adv-x="1515" d="M51 688q0 191 96 352.5t261 255t360 93.5q139 0 267.5 -56.5t222 -151.5t149 -225.5t55.5 -271.5q0 -144 -55.5 -275t-150 -225.5t-225 -150.5t-273.5 -56q-145 0 -276 56t-225.5 151t-150 226.5t-55.5 277.5zM166 688q0 -122 46.5 -232.5t125.5 -190t188.5 -126.5 t231.5 -47q159 0 295 79.5t215.5 216t79.5 296.5q0 117 -47 226t-125.5 189t-186 127.5t-223.5 47.5q-270 0 -449 -197q-72 -79 -111.5 -181t-39.5 -208zM360 674q0 172 125.5 297t298.5 125q82 0 147 -26.5t140 -90.5v-174q-61 74 -88 98q-37 35 -91.5 56.5t-107.5 21.5 q-123 0 -214 -92.5t-91 -218.5q0 -122 91 -212.5t214 -90.5q50 0 105.5 21t93.5 54q11 8 88 95v-172q-75 -59 -142 -85t-143 -26q-173 0 -299.5 125t-126.5 295z" />
<glyph unicode="&#xaa;" horiz-adv-x="733" d="M84 1104q0 115 73 191.5t183 76.5q105 0 180 -78v66h96v-512h-96v63q-71 -77 -178 -77q-112 0 -185 76.5t-73 193.5zM182 1108q0 -82 48 -135t122 -53q77 0 125.5 51t48.5 133q0 81 -48.5 131.5t-125.5 50.5q-72 0 -121 -51.5t-49 -126.5z" />
<glyph unicode="&#xab;" horiz-adv-x="882" d="M76 436l305 383l96 -74l-244 -309l244 -301l-96 -76zM381 436l305 383l94 -74l-243 -309l243 -301l-94 -76z" />
<glyph unicode="&#xac;" horiz-adv-x="1024" d="M68 403v144h886v-547h-153v403h-733z" />
<glyph unicode="&#xad;" horiz-adv-x="370" d="M0 371v131h371v-131h-371z" />
<glyph unicode="&#xae;" horiz-adv-x="1515" d="M51 688q0 191 96 352.5t261 255t360 93.5q139 0 267.5 -56.5t222 -151.5t149 -225.5t55.5 -271.5q0 -144 -55.5 -275t-150 -225.5t-225 -150.5t-273.5 -56q-145 0 -276 56t-225.5 151t-150 226.5t-55.5 277.5zM166 688q0 -122 46.5 -232.5t125.5 -190t188.5 -126.5 t231.5 -47q159 0 295 79.5t215.5 216t79.5 296.5q0 117 -47 226t-125.5 189t-186 127.5t-223.5 47.5q-270 0 -449 -197q-72 -79 -111.5 -181t-39.5 -208zM578 266v819h139q132 0 201 -59.5t69 -173.5q0 -92 -49 -150t-139 -73l250 -363h-144l-211 309v-309h-116zM694 735h37 q137 0 137 119q0 62 -35.5 90.5t-111.5 28.5h-27v-238z" />
<glyph unicode="&#xaf;" horiz-adv-x="1024" d="M240 1071v123h544v-123h-544z" />
<glyph unicode="&#xb0;" d="M307 1114q0 114 80.5 193t196.5 79q110 0 190 -81t80 -191q0 -114 -79.5 -194t-192.5 -80q-114 0 -194.5 80t-80.5 194zM416 1114q0 -69 48.5 -117.5t117.5 -48.5q68 0 115.5 48.5t47.5 117.5q0 66 -47.5 115t-113.5 49q-70 0 -119 -48t-49 -116z" />
<glyph unicode="&#xb1;" d="M98 0v125h965v-125h-965zM98 635v125h420v411h125v-411h420v-125h-420v-399h-125v399h-420z" />
<glyph unicode="&#xb2;" horiz-adv-x="559" d="M43 805l236 254q53 58 74.5 92t21.5 61q0 38 -30.5 65.5t-74.5 27.5q-33 0 -60 -18t-36 -46q-3 -10 -8 -49h-92q4 54 14 82q20 53 69.5 84t112.5 31q83 0 140 -51.5t57 -125.5q0 -47 -26 -91t-103 -128l-98 -104h227v-84h-424z" />
<glyph unicode="&#xb3;" horiz-adv-x="559" d="M74 975h90q13 -94 100 -94q43 0 73 28t30 68q0 46 -29 67t-96 21v80q63 1 89.5 20t26.5 60q0 35 -25 57.5t-63 22.5q-40 0 -59.5 -19t-28.5 -69h-92q14 84 56.5 128t123.5 44q78 0 129.5 -46t51.5 -116q0 -71 -62 -121q70 -49 70 -131q0 -77 -56 -127.5t-141 -50.5 q-58 0 -106 28t-68 74q-10 24 -14 76z" />
<glyph unicode="&#xb4;" horiz-adv-x="1024" d="M424 1090l215 294l152 -67l-277 -279z" />
<glyph unicode="&#xb5;" horiz-adv-x="952" d="M139 -479v1329h146v-518q0 -223 192 -223q54 0 98 24t66 64q27 52 27 157v496h145v-512q0 -94 -17.5 -152t-60.5 -104q-44 -51 -111.5 -79t-142.5 -28q-115 0 -202 64l6 -518h-146z" />
<glyph unicode="&#xb6;" d="M84 1014q0 96 40 176t109 123q88 53 246 53h588l-68 -119h-90v-1450h-129v1450h-217v-1450h-129v875h-31q-141 0 -230 95.5t-89 246.5z" />
<glyph unicode="&#xb7;" horiz-adv-x="460" d="M129 438q0 41 30 71t70 30q43 0 73 -30t30 -71q0 -42 -30 -72t-71 -30q-43 0 -72.5 29.5t-29.5 72.5z" />
<glyph unicode="&#xb8;" horiz-adv-x="1024" d="M373 -375l172 269l135 -56l-207 -262z" />
<glyph unicode="&#xb9;" horiz-adv-x="559" d="M141 1294l52 84h149v-573h-92v489h-109z" />
<glyph unicode="&#xba;" horiz-adv-x="733" d="M86 1106q0 110 83 188t200 78q118 0 199 -78t81 -192t-81.5 -192.5t-202.5 -78.5q-117 0 -198 80t-81 195zM184 1106q0 -83 51 -135.5t130 -52.5q81 0 133.5 52t52.5 132q0 81 -52 133.5t-132 52.5q-78 0 -130.5 -52t-52.5 -130z" />
<glyph unicode="&#xbb;" horiz-adv-x="882" d="M102 135l244 301l-244 309l97 74l305 -383l-305 -377zM408 135l243 301l-243 309l94 74l305 -383l-305 -377z" />
<glyph unicode="&#xbc;" horiz-adv-x="1761" d="M193 1270l57 96h196v-819h-108v723h-145zM442 20l795 1373l80 -43l-795 -1377zM1044 133l549 746v-650h103v-96h-103v-133h-108v133h-441zM1237 229h248v336z" />
<glyph unicode="&#xbd;" horiz-adv-x="1761" d="M193 1270l57 96h196v-819h-108v723h-145zM442 20l795 1373l80 -43l-795 -1377zM1079 0l320 350q82 91 113.5 143.5t31.5 96.5q0 62 -47.5 104.5t-116.5 42.5q-41 0 -78 -18t-57 -49t-28 -99h-109q6 58 15 88.5t30 61.5q37 52 96.5 81t130.5 29q114 0 192.5 -71t78.5 -172 q0 -68 -36 -127.5t-151 -186.5l-161 -178h346v-96h-570z" />
<glyph unicode="&#xbe;" horiz-adv-x="1761" d="M84 768h104q10 -56 31 -82q20 -26 55 -41.5t72 -15.5q68 0 114 44.5t46 110.5q0 43 -22 78.5t-58 50.5q-32 14 -100 17v92q168 0 168 131q0 56 -39.5 92.5t-100.5 36.5t-92 -29t-45 -100h-106q13 87 41 129q29 46 82.5 71t119.5 25q106 0 176 -63t70 -160 q0 -57 -22 -97.5t-76 -80.5q110 -71 110 -197q0 -106 -76.5 -177t-191.5 -71q-73 0 -134 31.5t-93 85.5q-25 41 -33 119zM444 20l795 1373l78 -43l-795 -1377zM1044 133l549 746v-650h103v-96h-103v-133h-108v133h-441zM1237 229h248v336z" />
<glyph unicode="&#xbf;" horiz-adv-x="684" d="M109 203q0 78 39.5 123t134.5 77q81 26 105 44.5t24 52.5q0 31 -19.5 51t-48.5 20q-64 0 -70 -75h-143q9 88 65.5 138t147.5 50q88 0 148.5 -55t60.5 -133q0 -49 -26 -91t-72 -67q-31 -16 -133 -51q-38 -12 -54 -32.5t-16 -55.5q0 -44 24.5 -70.5t65.5 -26.5q40 0 65 26 t25 67q0 14 -6 41h141q6 -35 6 -50q0 -88 -67 -149.5t-164 -61.5q-101 0 -167 65t-66 163zM240 827q0 43 29.5 73t72.5 30q41 0 70.5 -30.5t29.5 -72.5q0 -41 -30.5 -70.5t-71.5 -29.5t-70.5 29.5t-29.5 70.5z" />
<glyph unicode="&#xc0;" horiz-adv-x="1269" d="M14 0l629 1432l614 -1432h-167l-162 387h-584l-164 -387h-166zM358 1714l138 92l243 -266l-88 -65zM408 528h460l-227 547z" />
<glyph unicode="&#xc1;" horiz-adv-x="1269" d="M14 0l629 1432l614 -1432h-167l-162 387h-584l-164 -387h-166zM408 528h460l-227 547zM551 1540l244 266l137 -92l-293 -239z" />
<glyph unicode="&#xc2;" horiz-adv-x="1269" d="M14 0l629 1432l614 -1432h-167l-162 387h-584l-164 -387h-166zM369 1561l284 243l289 -243l-108 -84l-181 155l-178 -155zM408 528h460l-227 547z" />
<glyph unicode="&#xc3;" horiz-adv-x="1269" d="M14 0l629 1432l614 -1432h-167l-162 387h-584l-164 -387h-166zM360 1597q73 146 183 146q47 0 131 -43q78 -41 112 -41q50 0 93 88l88 -68q-69 -147 -187 -147q-54 0 -133 43q-82 41 -115 41q-25 0 -41 -17t-42 -71zM408 528h460l-227 547z" />
<glyph unicode="&#xc4;" horiz-adv-x="1269" d="M14 0l629 1432l614 -1432h-167l-162 387h-584l-164 -387h-166zM354 1636q0 41 31 72t74 31t73.5 -31t30.5 -74t-30.5 -73.5t-73.5 -30.5t-74 31t-31 75zM408 528h460l-227 547zM743 1636q0 41 31 72t74 31t73.5 -31t30.5 -74t-30.5 -73.5t-73.5 -30.5t-74 31t-31 75z" />
<glyph unicode="&#xc5;" horiz-adv-x="1269" d="M14 0l629 1432l614 -1432h-167l-162 387h-584l-164 -387h-166zM408 528h460l-227 547zM463 1653q0 74 54.5 128t129.5 54q76 0 131.5 -54.5t55.5 -129.5q0 -76 -55 -131.5t-130 -55.5q-78 0 -132 55.5t-54 133.5zM563 1651q0 -35 25.5 -60.5t60.5 -25.5q34 0 59 25.5 t25 60.5q0 34 -25 59t-59 25q-35 0 -60.5 -25t-25.5 -59z" />
<glyph unicode="&#xc6;" horiz-adv-x="1839" d="M27 0l608 1366h600l59 -141h-551l170 -410h539l61 -141h-538l221 -533h555l61 -141h-714l-160 383h-582l-161 -383h-168zM422 524h457l-228 539z" />
<glyph unicode="&#xc7;" horiz-adv-x="1323" d="M102 678q0 144 57 275.5t153 227t228 152t277 56.5q112 0 205.5 -32t198.5 -104v-188q-100 94 -199 137t-215 43q-148 0 -275 -77t-201.5 -208t-74.5 -284q0 -150 74.5 -278.5t202 -203.5t276.5 -75q114 0 213 43t199 135v-188q-197 -134 -412 -134q-142 0 -272.5 56 t-225.5 150.5t-152 224.5t-57 272zM545 -375l182 279l147 -66l-227 -266z" />
<glyph unicode="&#xc8;" horiz-adv-x="987" d="M178 0v1366h707v-141h-553v-408h538v-141h-538v-535h553v-141h-707zM252 1714l137 92l244 -266l-88 -65z" />
<glyph unicode="&#xc9;" horiz-adv-x="987" d="M178 0v1366h707v-141h-553v-408h538v-141h-538v-535h553v-141h-707zM430 1540l244 266l137 -92l-293 -239z" />
<glyph unicode="&#xca;" horiz-adv-x="987" d="M178 0v1366h707v-141h-553v-408h538v-141h-538v-535h553v-141h-707zM258 1561l285 243l288 -243l-108 -84l-180 155l-178 -155z" />
<glyph unicode="&#xcb;" horiz-adv-x="987" d="M178 0v1366h707v-141h-553v-408h538v-141h-538v-535h553v-141h-707zM246 1636q0 42 31 72.5t73 30.5q43 0 74 -31t31 -74t-31 -73.5t-74 -30.5t-73.5 31t-30.5 75zM635 1636q0 42 30.5 72.5t73.5 30.5t74 -31t31 -74t-31 -73.5t-74 -30.5t-73.5 31t-30.5 75z" />
<glyph unicode="&#xcc;" horiz-adv-x="507" d="M4 1714l137 92l197 -272l-88 -59zM176 0v1366h154v-1366h-154z" />
<glyph unicode="&#xcd;" horiz-adv-x="507" d="M176 1534l197 272l137 -92l-246 -239zM178 0v1366h154v-1366h-154z" />
<glyph unicode="&#xce;" horiz-adv-x="507" d="M14 1561l252 243l252 -243l-100 -84l-152 155l-153 -155zM176 0v1366h154v-1366h-154z" />
<glyph unicode="&#xcf;" horiz-adv-x="507" d="M25 1636q0 42 30.5 72.5t73.5 30.5t73.5 -31t30.5 -74t-30.5 -73.5t-73.5 -30.5t-73.5 31t-30.5 75zM178 0v1366h154v-1366h-154zM301 1636q0 41 31 72t74 31t73.5 -31t30.5 -74t-30.5 -73.5t-73.5 -30.5t-74 31t-31 75z" />
<glyph unicode="&#xd0;" horiz-adv-x="1296" d="M43 668v137h137v561h279q164 0 282.5 -37.5t216.5 -120.5q115 -95 175.5 -230t60.5 -296q0 -328 -240 -524q-101 -85 -216 -121.5t-281 -36.5h-277v668h-137zM334 141h131q241 0 389 125q89 75 137.5 183t48.5 233q0 126 -48 235t-136 183q-148 125 -391 125h-131v-420 h325v-137h-325v-527z" />
<glyph unicode="&#xd1;" horiz-adv-x="1570" d="M178 0v1423l1063 -1116v1059h154v-1427l-1063 1114v-1053h-154zM518 1597q73 146 182 146q47 0 131 -43q78 -41 113 -41q26 0 47.5 20.5t44.5 67.5l88 -68q-69 -147 -186 -147q-54 0 -133 43q-82 41 -115 41q-25 0 -41.5 -17t-42.5 -71z" />
<glyph unicode="&#xd2;" horiz-adv-x="1626" d="M102 690q0 139 57.5 268t154 223.5t228 151t273.5 56.5q190 0 353.5 -95.5t259.5 -258.5t96 -353q0 -144 -57 -275t-153 -225.5t-228.5 -150.5t-278.5 -56t-286.5 63.5t-241.5 176.5q-177 199 -177 475zM256 690q0 -251 174 -416q78 -73 178 -114t201 -41q153 0 282 75 t204 204.5t75 283.5q0 153 -74 282.5t-202.5 205t-280.5 75.5q-150 0 -278.5 -75t-203.5 -203t-75 -277zM530 1714l138 92l243 -266l-88 -65z" />
<glyph unicode="&#xd3;" horiz-adv-x="1626" d="M102 690q0 139 57.5 268t154 223.5t228 151t273.5 56.5q190 0 353.5 -95.5t259.5 -258.5t96 -353q0 -144 -57 -275t-153 -225.5t-228.5 -150.5t-278.5 -56t-286.5 63.5t-241.5 176.5q-177 199 -177 475zM256 690q0 -251 174 -416q78 -73 178 -114t201 -41q153 0 282 75 t204 204.5t75 283.5q0 153 -74 282.5t-202.5 205t-280.5 75.5q-150 0 -278.5 -75t-203.5 -203t-75 -277zM727 1540l244 266l137 -92l-293 -239z" />
<glyph unicode="&#xd4;" horiz-adv-x="1626" d="M102 690q0 139 57.5 268t154 223.5t228 151t273.5 56.5q190 0 353.5 -95.5t259.5 -258.5t96 -353q0 -144 -57 -275t-153 -225.5t-228.5 -150.5t-278.5 -56t-286.5 63.5t-241.5 176.5q-177 199 -177 475zM256 690q0 -251 174 -416q78 -73 178 -114t201 -41q153 0 282 75 t204 204.5t75 283.5q0 153 -74 282.5t-202.5 205t-280.5 75.5q-150 0 -278.5 -75t-203.5 -203t-75 -277zM532 1561l285 243l289 -243l-109 -84l-180 155l-178 -155z" />
<glyph unicode="&#xd5;" horiz-adv-x="1626" d="M102 690q0 139 57.5 268t154 223.5t228 151t273.5 56.5q190 0 353.5 -95.5t259.5 -258.5t96 -353q0 -144 -57 -275t-153 -225.5t-228.5 -150.5t-278.5 -56t-286.5 63.5t-241.5 176.5q-177 199 -177 475zM256 690q0 -251 174 -416q78 -73 178 -114t201 -41q153 0 282 75 t204 204.5t75 283.5q0 153 -74 282.5t-202.5 205t-280.5 75.5q-150 0 -278.5 -75t-203.5 -203t-75 -277zM545 1597q73 146 182 146q47 0 131 -43q78 -41 113 -41q26 0 47.5 20.5t44.5 67.5l88 -68q-69 -147 -186 -147q-55 0 -134 43q-82 41 -114 41q-25 0 -41.5 -17 t-42.5 -71z" />
<glyph unicode="&#xd6;" horiz-adv-x="1626" d="M102 690q0 139 57.5 268t154 223.5t228 151t273.5 56.5q190 0 353.5 -95.5t259.5 -258.5t96 -353q0 -144 -57 -275t-153 -225.5t-228.5 -150.5t-278.5 -56t-286.5 63.5t-241.5 176.5q-177 199 -177 475zM256 690q0 -251 174 -416q78 -73 178 -114t201 -41q153 0 282 75 t204 204.5t75 283.5q0 153 -74 282.5t-202.5 205t-280.5 75.5q-150 0 -278.5 -75t-203.5 -203t-75 -277zM528 1636q0 41 31 72t74 31t73.5 -31t30.5 -74t-30.5 -73.5t-73.5 -30.5t-74 31t-31 75zM918 1636q0 42 31 72.5t73 30.5q43 0 73.5 -31t30.5 -74t-30.5 -73.5 t-73.5 -30.5t-73.5 31t-30.5 75z" />
<glyph unicode="&#xd7;" d="M178 379l318 317l-318 318l86 86l318 -318l317 318l86 -86l-317 -318l317 -317l-86 -86l-317 317l-318 -317z" />
<glyph unicode="&#xd8;" horiz-adv-x="1626" d="M100 76l160 157q-86 119 -122 220t-36 227q0 191 96 354.5t260.5 259t356.5 95.5q230 0 447 -158l157 158l88 -91l-153 -155q94 -125 132 -228t38 -233q0 -190 -96 -353t-260 -258.5t-355 -95.5q-241 0 -463 168l-157 -157zM256 680q0 -95 25 -169.5t88 -170.5l784 788 q-149 117 -340 117q-114 0 -217 -44.5t-177.5 -120t-118.5 -180.5t-44 -220zM459 252q65 -60 162.5 -96.5t195.5 -36.5q112 0 214 45t176.5 120t118.5 179t44 217q0 101 -29 184.5t-94 173.5z" />
<glyph unicode="&#xd9;" horiz-adv-x="1329" d="M178 487v879h154v-838q0 -107 9.5 -162.5t35.5 -99.5q40 -65 120.5 -106t166.5 -41q87 0 167.5 41t120.5 106q26 44 35.5 99.5t9.5 162.5v838h154v-879q0 -111 -20.5 -186t-69.5 -137q-68 -88 -173 -138.5t-222 -50.5t-224.5 51t-173.5 138q-49 63 -69.5 136.5 t-20.5 186.5zM389 1714l137 92l244 -266l-88 -65z" />
<glyph unicode="&#xda;" horiz-adv-x="1329" d="M178 487v879h154v-838q0 -107 9.5 -162.5t35.5 -99.5q40 -65 120.5 -106t166.5 -41q87 0 167.5 41t120.5 106q26 44 35.5 99.5t9.5 162.5v838h154v-879q0 -111 -20.5 -186t-69.5 -137q-68 -88 -173 -138.5t-222 -50.5t-224.5 51t-173.5 138q-49 63 -69.5 136.5 t-20.5 186.5zM580 1540l243 266l138 -92l-293 -239z" />
<glyph unicode="&#xdb;" horiz-adv-x="1329" d="M178 487v879h154v-838q0 -107 9.5 -162.5t35.5 -99.5q40 -65 120.5 -106t166.5 -41q87 0 167.5 41t120.5 106q26 44 35.5 99.5t9.5 162.5v838h154v-879q0 -111 -20.5 -186t-69.5 -137q-68 -88 -173 -138.5t-222 -50.5t-224.5 51t-173.5 138q-49 63 -69.5 136.5 t-20.5 186.5zM391 1561l285 243l289 -243l-109 -84l-180 155l-178 -155z" />
<glyph unicode="&#xdc;" horiz-adv-x="1329" d="M178 487v879h154v-838q0 -107 9.5 -162.5t35.5 -99.5q40 -65 120.5 -106t166.5 -41q87 0 167.5 41t120.5 106q26 44 35.5 99.5t9.5 162.5v838h154v-879q0 -111 -20.5 -186t-69.5 -137q-68 -88 -173 -138.5t-222 -50.5t-224.5 51t-173.5 138q-49 63 -69.5 136.5 t-20.5 186.5zM373 1636q0 42 30.5 72.5t73.5 30.5t74 -31t31 -74t-31 -73.5t-74 -30.5t-73.5 31t-30.5 75zM762 1636q0 42 31 72.5t73 30.5q43 0 74 -31t31 -74t-31 -73.5t-74 -30.5t-73.5 31t-30.5 75z" />
<glyph unicode="&#xdd;" horiz-adv-x="1081" d="M14 1366h176l349 -610l352 610h178l-455 -778v-588h-153v588zM449 1540l243 266l137 -92l-292 -239z" />
<glyph unicode="&#xde;" horiz-adv-x="935" d="M178 0v1366h154v-192h94q126 0 206 -22t138 -73q60 -51 93.5 -127.5t33.5 -160.5q0 -80 -30.5 -155t-82.5 -124q-110 -104 -319 -104h-133v-408h-154zM332 547h123q140 0 216.5 63.5t76.5 180.5q0 114 -76 180q-72 61 -228 61h-112v-485z" />
<glyph unicode="&#xdf;" horiz-adv-x="1648" d="M102 250l142 39q15 -93 56.5 -136.5t115.5 -43.5q66 0 111.5 45t45.5 110q0 67 -63 105q-49 27 -158 73q-105 44 -152.5 100t-47.5 136q0 107 80 180.5t198 73.5q89 0 153 -42t115 -134l-116 -78l-7 12q-33 66 -63.5 87.5t-83.5 21.5q-55 0 -92 -35t-37 -88q0 -45 45 -74 q37 -21 154 -70q119 -50 171 -110.5t52 -149.5q0 -125 -90.5 -211t-220.5 -86q-122 0 -200.5 70t-107.5 205zM926 250l143 39q15 -93 56.5 -136.5t113.5 -43.5q67 0 113.5 45t46.5 110q0 67 -64 105q-52 28 -159 73q-106 44 -153.5 100t-47.5 136q0 107 80 180.5t198 73.5 q89 0 154.5 -42.5t116.5 -133.5l-119 -78q-34 69 -66.5 95t-87.5 26t-92 -35t-37 -88q0 -45 45 -74q37 -21 156 -70q119 -50 171 -110.5t52 -149.5q0 -125 -90.5 -211t-220.5 -86q-121 0 -199.5 70t-109.5 205z" />
<glyph unicode="&#xe0;" horiz-adv-x="911" d="M14 0l449 987l436 -987h-160l-106 242h-352l-107 -242h-160zM170 1317l152 67l215 -294l-91 -52zM332 375h252l-125 295z" />
<glyph unicode="&#xe1;" horiz-adv-x="911" d="M14 0l449 987l436 -987h-160l-106 242h-352l-107 -242h-160zM332 375h252l-125 295zM389 1090l215 294l152 -67l-277 -279z" />
<glyph unicode="&#xe2;" horiz-adv-x="911" d="M14 0l449 987l436 -987h-160l-106 242h-352l-107 -242h-160zM186 1118l283 242l285 -242l-107 -80l-178 154l-180 -154zM332 375h252l-125 295z" />
<glyph unicode="&#xe3;" horiz-adv-x="911" d="M14 0l449 987l436 -987h-160l-106 242h-352l-107 -242h-160zM168 1108q51 83 90.5 113t97.5 30q53 0 142 -41q60 -27 80 -34t38 -7q28 0 50.5 19.5t48.5 66.5l86 -69q-65 -146 -193 -146q-28 0 -54 8t-85 35q-88 39 -125 39q-27 0 -46.5 -19t-41.5 -65zM332 375h252 l-125 295z" />
<glyph unicode="&#xe4;" horiz-adv-x="911" d="M14 0l449 987l436 -987h-160l-106 242h-352l-107 -242h-160zM188 1149q0 41 31 71.5t72 30.5q43 0 73.5 -30.5t30.5 -71.5q0 -43 -30.5 -74t-71.5 -31q-43 0 -74 31t-31 74zM332 375h252l-125 295zM545 1149q0 40 30.5 70t71.5 30q42 0 72.5 -30t30.5 -72q0 -41 -31 -72 t-72 -31q-42 0 -72 31t-30 74z" />
<glyph unicode="&#xe5;" horiz-adv-x="911" d="M14 0l449 987l436 -987h-160l-106 242h-352l-107 -242h-160zM295 1217q0 71 52 122.5t124 51.5t124 -52t52 -125q0 -72 -52 -124t-124 -52q-73 0 -124.5 52.5t-51.5 126.5zM332 375h252l-125 295zM385 1217q0 -35 25.5 -61t60.5 -26t60.5 26t25.5 61q0 34 -25.5 58.5 t-60.5 24.5t-60.5 -24.5t-25.5 -58.5z" />
<glyph unicode="&#xe6;" horiz-adv-x="1280" d="M27 0l403 907h438l56 -133h-361l92 -219h353l57 -133h-352l125 -289h358l55 -133h-516l-96 240h-350l-103 -240h-159zM342 373h244l-121 297z" />
<glyph unicode="&#xe7;" horiz-adv-x="970" d="M88 451q0 198 144 339.5t346 141.5q77 0 145.5 -25.5t144.5 -81.5v-190q-83 89 -151.5 126.5t-147.5 37.5q-136 0 -234.5 -102.5t-98.5 -245.5q0 -140 98.5 -241t236.5 -101q77 0 144.5 36.5t152.5 124.5v-190q-145 -105 -297 -105q-130 0 -241.5 64.5t-176.5 174 t-65 237.5zM387 -375l172 269l135 -56l-207 -262z" />
<glyph unicode="&#xe8;" horiz-adv-x="800" d="M150 1317l151 67l215 -294l-90 -52zM178 0v907h522v-133h-376v-213h366v-133h-366v-295h376v-133h-522z" />
<glyph unicode="&#xe9;" horiz-adv-x="800" d="M178 0v907h522v-133h-376v-213h366v-133h-366v-295h376v-133h-522zM375 1090l215 294l151 -67l-276 -279z" />
<glyph unicode="&#xea;" horiz-adv-x="800" d="M166 1118l283 242l284 -242l-106 -80l-178 154l-181 -154zM178 0v907h522v-133h-376v-213h366v-133h-366v-295h376v-133h-522z" />
<glyph unicode="&#xeb;" horiz-adv-x="800" d="M174 1149q0 41 30.5 71.5t71.5 30.5q43 0 74 -30.5t31 -71.5q0 -43 -30.5 -74t-71.5 -31q-43 0 -74 31t-31 74zM178 0v907h520v-133h-374v-213h366v-133h-366v-295h374v-133h-520zM530 1149q0 40 31 70t72 30q42 0 72 -30t30 -72q0 -41 -30.5 -72t-71.5 -31q-43 0 -73 31 t-30 74z" />
<glyph unicode="&#xec;" horiz-adv-x="501" d="M-43 1317l152 67l215 -294l-91 -52zM178 0v907h146v-907h-146z" />
<glyph unicode="&#xed;" horiz-adv-x="501" d="M176 1090l215 294l152 -67l-277 -279zM178 0v907h146v-907h-146z" />
<glyph unicode="&#xee;" horiz-adv-x="501" d="M-27 1118l283 242l285 -242l-107 -80l-178 154l-180 -154zM176 0v907h146v-907h-146z" />
<glyph unicode="&#xef;" horiz-adv-x="501" d="M10 1149q0 41 31 71.5t72 30.5q43 0 73.5 -30.5t30.5 -71.5q0 -43 -30.5 -74t-71.5 -31q-43 0 -74 31t-31 74zM178 0v907h146v-907h-146zM299 1149q0 40 30.5 70t71.5 30q42 0 72.5 -30t30.5 -72q0 -41 -31 -72t-72 -31q-42 0 -72 31t-30 74z" />
<glyph unicode="&#xf0;" horiz-adv-x="983" d="M59 389v123h119v395h213q110 0 191.5 -25.5t148.5 -80.5q162 -134 162 -346q0 -222 -164 -351q-68 -56 -147 -80t-191 -24h-213v389h-119zM324 133h71q158 0 254 87.5t96 232.5q0 147 -95 234t-255 87h-71v-262h217v-123h-217v-256z" />
<glyph unicode="&#xf1;" horiz-adv-x="1196" d="M178 0v983l699 -719l-3 643h146v-983l-698 717l2 -641h-146zM303 1108q51 83 90.5 113t98.5 30q52 0 141 -41q60 -27 80.5 -34t38.5 -7q28 0 50 19.5t48 66.5l86 -69q-65 -146 -193 -146q-28 0 -54 8t-85 35q-88 39 -125 39q-27 0 -46.5 -19t-41.5 -65z" />
<glyph unicode="&#xf2;" horiz-adv-x="1146" d="M88 459q0 126 66 235t178 173.5t241 64.5q131 0 243 -64.5t177.5 -175t65.5 -239.5q0 -130 -65.5 -240t-178.5 -174t-246 -64q-131 0 -241.5 64.5t-175 176t-64.5 243.5zM236 459q0 -146 97.5 -248t237.5 -102q141 0 240.5 100.5t99.5 243.5q0 144 -99 245t-239 101 q-138 0 -237.5 -100.5t-99.5 -239.5zM281 1317l151 67l215 -294l-90 -52z" />
<glyph unicode="&#xf3;" horiz-adv-x="1146" d="M88 459q0 126 66 235t178 173.5t241 64.5q131 0 243 -64.5t177.5 -175t65.5 -239.5q0 -130 -65.5 -240t-178.5 -174t-246 -64q-131 0 -241.5 64.5t-175 176t-64.5 243.5zM236 459q0 -146 97.5 -248t237.5 -102q141 0 240.5 100.5t99.5 243.5q0 144 -99 245t-239 101 q-138 0 -237.5 -100.5t-99.5 -239.5zM500 1090l215 294l151 -67l-276 -279z" />
<glyph unicode="&#xf4;" horiz-adv-x="1146" d="M88 459q0 126 66 235t178 173.5t241 64.5q131 0 243 -64.5t177.5 -175t65.5 -239.5q0 -130 -65.5 -240t-178.5 -174t-246 -64q-131 0 -241.5 64.5t-175 176t-64.5 243.5zM236 459q0 -146 97.5 -248t237.5 -102q141 0 240.5 100.5t99.5 243.5q0 144 -99 245t-239 101 q-138 0 -237.5 -100.5t-99.5 -239.5zM297 1118l283 242l284 -242l-106 -80l-178 154l-181 -154z" />
<glyph unicode="&#xf5;" horiz-adv-x="1146" d="M88 459q0 126 66 235t178 173.5t241 64.5q131 0 243 -64.5t177.5 -175t65.5 -239.5q0 -130 -65.5 -240t-178.5 -174t-246 -64q-131 0 -241.5 64.5t-175 176t-64.5 243.5zM236 459q0 -146 97.5 -248t237.5 -102q141 0 240.5 100.5t99.5 243.5q0 144 -99 245t-239 101 q-138 0 -237.5 -100.5t-99.5 -239.5zM279 1108q51 83 90.5 113t97.5 30q52 0 141 -41q60 -27 80.5 -34t38.5 -7q28 0 50 19.5t48 66.5l86 -69q-65 -146 -192 -146q-28 0 -54 8t-85 35q-88 39 -125 39q-27 0 -46.5 -19t-41.5 -65z" />
<glyph unicode="&#xf6;" horiz-adv-x="1146" d="M88 459q0 126 66 235t178 173.5t241 64.5q131 0 243 -64.5t177.5 -175t65.5 -239.5q0 -130 -65.5 -240t-178.5 -174t-246 -64q-131 0 -241.5 64.5t-175 176t-64.5 243.5zM236 459q0 -146 97.5 -248t237.5 -102q141 0 240.5 100.5t99.5 243.5q0 144 -99 245t-239 101 q-138 0 -237.5 -100.5t-99.5 -239.5zM299 1149q0 41 30.5 71.5t71.5 30.5q43 0 74 -30.5t31 -71.5q0 -43 -31 -74t-72 -31q-43 0 -73.5 31t-30.5 74zM655 1149q0 40 31 70t72 30q42 0 72 -30t30 -72q0 -41 -30.5 -72t-71.5 -31q-43 0 -73 31t-30 74z" />
<glyph unicode="&#xf7;" d="M98 635v125h965v-125h-965zM485 430q0 38 29 66t68 28q40 0 68 -28t28 -68t-28 -68t-68 -28t-68.5 28.5t-28.5 69.5zM485 967q0 38 29 66t68 28q40 0 68 -28t28 -68t-28 -68.5t-68 -28.5t-68.5 29t-28.5 70z" />
<glyph unicode="&#xf8;" horiz-adv-x="1146" d="M57 33l131 129q-100 129 -100 291q0 129 65.5 239.5t177 175t242.5 64.5q157 0 291 -96l135 133l91 -90l-134 -134q103 -133 103 -292q0 -129 -65.5 -239t-177.5 -174.5t-243 -64.5q-155 0 -290 97l-131 -133zM236 453q0 -98 55 -189l475 473q-88 62 -193 62 q-141 0 -239 -100.5t-98 -245.5zM383 170q94 -61 190 -61q139 0 238.5 101.5t99.5 242.5q0 99 -55 190z" />
<glyph unicode="&#xf9;" horiz-adv-x="1044" d="M178 332v575h146v-551q0 -67 5.5 -101t20.5 -60q23 -37 72.5 -61.5t101.5 -24.5t100.5 24.5t71.5 61.5q27 47 27 161v551h145v-575q0 -143 -63 -226q-47 -61 -122 -96t-159 -35q-85 0 -160 35t-122 96q-64 84 -64 226zM229 1317l152 67l215 -294l-90 -52z" />
<glyph unicode="&#xfa;" horiz-adv-x="1044" d="M178 332v575h146v-551q0 -67 5.5 -101t20.5 -60q23 -37 72.5 -61.5t101.5 -24.5t100.5 24.5t71.5 61.5q27 47 27 161v551h145v-575q0 -143 -63 -226q-47 -61 -122 -96t-159 -35q-85 0 -160 35t-122 96q-64 84 -64 226zM449 1090l215 294l151 -67l-276 -279z" />
<glyph unicode="&#xfb;" horiz-adv-x="1044" d="M178 332v575h146v-551q0 -67 5.5 -101t20.5 -60q23 -37 72.5 -61.5t101.5 -24.5t100.5 24.5t71.5 61.5q27 47 27 161v551h145v-575q0 -143 -63 -226q-47 -61 -122 -96t-159 -35q-85 0 -160 35t-122 96q-64 84 -64 226zM254 1118l283 242l284 -242l-106 -80l-178 154 l-181 -154z" />
<glyph unicode="&#xfc;" horiz-adv-x="1044" d="M178 332v575h146v-551q0 -67 5.5 -101t20.5 -60q23 -37 72.5 -61.5t101.5 -24.5t100.5 24.5t71.5 61.5q27 47 27 161v551h145v-575q0 -143 -63 -226q-47 -61 -122 -96t-159 -35q-85 0 -160 35t-122 96q-64 84 -64 226zM256 1149q0 41 30.5 71.5t71.5 30.5q43 0 74 -30.5 t31 -71.5q0 -43 -31 -74t-72 -31q-43 0 -73.5 31t-30.5 74zM612 1149q0 40 31 70t72 30q42 0 72 -30t30 -72q0 -41 -30.5 -72t-71.5 -31q-43 0 -73 31t-30 74z" />
<glyph unicode="&#xfd;" horiz-adv-x="804" d="M14 907h170l217 -364l222 364h170l-318 -520v-387h-147v387zM336 1090l215 294l151 -67l-276 -279z" />
<glyph unicode="&#xfe;" horiz-adv-x="774" d="M178 0v907h146v-184h75q87 0 143 -15.5t99 -52.5q43 -36 67.5 -88t24.5 -110q0 -123 -84 -195t-227 -72h-98v-190h-146zM324 322h94q83 0 126.5 34.5t43.5 100.5q0 133 -178 133h-86v-268z" />
<glyph unicode="&#xff;" horiz-adv-x="804" d="M14 907h170l217 -364l222 364h170l-318 -520v-387h-147v387zM135 1149q0 41 31 71.5t72 30.5q43 0 73.5 -30.5t30.5 -71.5q0 -43 -30.5 -74t-71.5 -31q-43 0 -74 31t-31 74zM492 1149q0 40 30.5 70t71.5 30q42 0 72 -30t30 -72q0 -41 -30.5 -72t-71.5 -31q-42 0 -72 31 t-30 74z" />
<glyph unicode="&#x152;" horiz-adv-x="2162" d="M102 680q0 115 36 223.5t101.5 195.5t152.5 152.5t195.5 101.5t223.5 36q171 0 306 -71t245 -220v268h698v-141h-544v-408h530v-141h-530v-535h544v-141h-698v262q-207 -287 -545 -287q-115 0 -224 36t-197 101.5t-154.5 152.5t-103 194t-36.5 221zM256 690 q0 -155 73.5 -286.5t199.5 -208t274 -76.5q152 0 281 75.5t203.5 204.5t74.5 281q0 114 -44 218.5t-118.5 180.5t-176.5 121t-214 45q-146 0 -274 -76t-203.5 -204t-75.5 -275z" />
<glyph unicode="&#x153;" horiz-adv-x="1499" d="M88 451q0 97 38 186t102 153.5t151.5 103t183.5 38.5q191 0 330 -148v123h502v-133h-355v-213h346v-133h-346v-295h355v-133h-502v119q-75 -75 -152.5 -109.5t-173.5 -34.5t-184.5 38.5t-153 102.5t-103 152t-38.5 183zM236 459q0 -145 95 -247.5t230 -102.5 q137 0 234.5 101t97.5 243t-96.5 244t-231.5 102q-133 0 -231 -101.5t-98 -238.5z" />
<glyph unicode="&#x178;" horiz-adv-x="1081" d="M14 1366h176l349 -610l352 610h178l-455 -778v-588h-153v588zM262 1636q0 41 31 72t74 31t73.5 -31t30.5 -74t-30.5 -73.5t-73.5 -30.5t-74 31t-31 75zM651 1636q0 41 31 72t74 31t73.5 -31t30.5 -74t-30.5 -73.5t-73.5 -30.5t-74 31t-31 75z" />
<glyph unicode="&#x2c6;" horiz-adv-x="1024" d="M229 1118l283 242l285 -242l-107 -80l-178 154l-180 -154z" />
<glyph unicode="&#x2dc;" horiz-adv-x="1024" d="M197 1108q51 83 90.5 113t97.5 30q52 0 141 -41q60 -27 80.5 -34t38.5 -7q28 0 50 19.5t48 66.5l86 -69q-65 -146 -192 -146q-28 0 -54 8t-85 35q-88 39 -125 39q-27 0 -46.5 -19t-41.5 -65z" />
<glyph unicode="&#x2000;" horiz-adv-x="917" />
<glyph unicode="&#x2001;" horiz-adv-x="1835" />
<glyph unicode="&#x2002;" horiz-adv-x="917" />
<glyph unicode="&#x2003;" horiz-adv-x="1835" />
<glyph unicode="&#x2004;" horiz-adv-x="611" />
<glyph unicode="&#x2005;" horiz-adv-x="458" />
<glyph unicode="&#x2006;" horiz-adv-x="305" />
<glyph unicode="&#x2007;" horiz-adv-x="305" />
<glyph unicode="&#x2008;" horiz-adv-x="229" />
<glyph unicode="&#x2009;" horiz-adv-x="367" />
<glyph unicode="&#x200a;" horiz-adv-x="101" />
<glyph unicode="&#x2010;" horiz-adv-x="370" d="M0 371v131h371v-131h-371z" />
<glyph unicode="&#x2011;" horiz-adv-x="370" d="M0 371v131h371v-131h-371z" />
<glyph unicode="&#x2012;" horiz-adv-x="370" d="M0 371v131h371v-131h-371z" />
<glyph unicode="&#x2013;" d="M240 371v131h682v-131h-682z" />
<glyph unicode="&#x2014;" horiz-adv-x="1114" d="M0 371v131h1114v-131h-1114z" />
<glyph unicode="&#x2018;" horiz-adv-x="534" d="M117 973l205 461l98 -39l-170 -471z" />
<glyph unicode="&#x2019;" horiz-adv-x="516" d="M94 963l170 471l133 -50l-204 -460z" />
<glyph unicode="&#x201a;" horiz-adv-x="516" d="M94 -266l170 471l133 -49l-204 -461z" />
<glyph unicode="&#x201c;" horiz-adv-x="835" d="M117 973l205 461l98 -39l-170 -471zM416 973l207 461l98 -39l-170 -471z" />
<glyph unicode="&#x201d;" horiz-adv-x="835" d="M117 963l170 471l133 -50l-205 -460zM416 963l170 471l135 -50l-207 -460z" />
<glyph unicode="&#x201e;" horiz-adv-x="835" d="M117 -272l170 473l133 -49l-205 -463zM416 -272l170 473l135 -49l-207 -463z" />
<glyph unicode="&#x2022;" horiz-adv-x="1366" d="M401 692q0 120 83.5 202.5t205.5 82.5q114 0 196.5 -83.5t82.5 -199.5q0 -118 -83 -201t-200 -83t-201 83t-84 199z" />
<glyph unicode="&#x2026;" horiz-adv-x="1527" d="M154 82q0 40 30 69t70 29q41 0 70.5 -29.5t29.5 -70.5t-29.5 -70.5t-70.5 -29.5t-70.5 29.5t-29.5 72.5zM664 82q0 40 30 69t70 29q41 0 70.5 -29.5t29.5 -70.5t-29.5 -70.5t-70.5 -29.5t-70.5 29.5t-29.5 72.5zM1171 82q0 39 30.5 68.5t70.5 29.5q41 0 70.5 -29.5 t29.5 -70.5t-29.5 -70.5t-70.5 -29.5q-42 0 -71.5 30t-29.5 72z" />
<glyph unicode="&#x202f;" horiz-adv-x="367" />
<glyph unicode="&#x2039;" horiz-adv-x="577" d="M76 436l305 383l96 -74l-244 -309l244 -301l-96 -76z" />
<glyph unicode="&#x203a;" horiz-adv-x="577" d="M102 135l244 301l-244 309l97 74l305 -383l-307 -377z" />
<glyph unicode="&#x205f;" horiz-adv-x="458" />
<glyph unicode="&#x20ac;" horiz-adv-x="1132" d="M92 362l49 119h74q-2 23 -2 37v25h-121l49 119h88q38 176 171 287.5t302 111.5q94 0 182 -37.5t156 -105.5l-65 -154q-47 80 -118 122t-157 42q-111 0 -195 -70t-122 -196h547l-51 -117l-517 -2v-62h492l-49 -119h-420q40 -118 124 -185.5t191 -67.5q87 0 160 45.5 t119 128.5v-213q-137 -95 -279 -95q-166 0 -294 105t-175 282h-139z" />
<glyph unicode="&#x2122;" horiz-adv-x="1476" d="M8 1274v92h471v-92h-188v-686h-98v686h-185zM553 588l133 829l293 -647l301 647l125 -829h-96l-70 528l-260 -567l-256 567l-76 -528h-94z" />
</font>
</defs>
</svg>
